# xmcd
#
# Track frame offsets: 
#        183
#        17108
#        37208
#        58363
#        74843
#        94703
#        111933
#        133233
#        152088
#        169233
#        195383
#        212628
#
# Disc length: 3081 seconds
#
# Revision: 1
# Processed by: cddbd v1.5.2PL0 Copyright (c) Steve Scherf et al.
# Submitted via: ExactAudioCopy v1.0b6
#
DISCID=b90c070c
DTITLE=Daryle Ryce (feat. Tim Gordon on Saxes) - Rosa's Grandchild
DYEAR=1992
DGENRE=Blues
TTITLE0=Saxman
TTITLE1=Too Soon
TTITLE2=The Way You Touched Me
TTITLE3=I'd Rather Have You
TTITLE4=I Don't Want Nobody
TTITLE5=No Room For Goodbyes
TTITLE6=Straight Drive
TTITLE7=Lyin'
TTITLE8=Should I Call
TTITLE9=Payday
TTITLE10=What Are We Fightin' For
TTITLE11=Sweet Little Annie Of May
EXTD=
EXTT0=
EXTT1=
EXTT2=
EXTT3=
EXTT4=
EXTT5=
EXTT6=
EXTT7=
EXTT8=
EXTT9=
EXTT10=
EXTT11=
PLAYORDER=
